<svg width="48" height="48" viewBox="0 0 48 48" fill="none" xmlns="http://www.w3.org/2000/svg">
<mask id="mask0_1368_294" style="mask-type:alpha" maskUnits="userSpaceOnUse" x="0" y="0" width="48" height="48">
<rect width="48" height="48" fill="#D9D9D9"/>
</mask>
<g mask="url(#mask0_1368_294)">
<path d="M12.9984 5.7499C11.5651 5.7499 10.3318 6.49157 9.29844 7.9749C8.2651 9.45824 7.74844 11.5332 7.74844 14.1999C7.74844 16.0999 8.02344 17.8166 8.57344 19.3499C9.12344 20.8832 9.58177 22.0666 9.94844 22.8999L16.4484 21.4999C16.9151 20.1332 17.3318 18.7749 17.6984 17.4249C18.0651 16.0749 18.2484 14.8666 18.2484 13.7999C18.2484 11.7332 17.7734 9.8749 16.8234 8.2249C15.8734 6.5749 14.5984 5.7499 12.9984 5.7499ZM15.5984 32.2499C16.4318 32.2499 17.0818 31.9749 17.5484 31.4249C18.0151 30.8749 18.2484 30.2166 18.2484 29.4499C18.2484 28.8832 18.1151 28.2582 17.8484 27.5749C17.5818 26.8916 17.2818 26.3166 16.9484 25.8499L11.7484 26.8999C11.7818 28.2332 12.1318 29.4582 12.7984 30.5749C13.4651 31.6916 14.3984 32.2499 15.5984 32.2499ZM34.9984 15.7499C33.3984 15.7499 32.1234 16.5749 31.1734 18.2249C30.2234 19.8749 29.7484 21.7666 29.7484 23.8999C29.7484 24.7666 29.9068 25.8582 30.2234 27.1749C30.5401 28.4916 31.0151 30.0166 31.6484 31.7499L38.0484 32.6499C38.3818 32.0166 38.8318 30.8832 39.3984 29.2499C39.9651 27.6166 40.2484 25.8666 40.2484 23.9999C40.2484 21.4666 39.7318 19.4582 38.6984 17.9749C37.6651 16.4916 36.4318 15.7499 34.9984 15.7499ZM32.3484 42.2499C33.5484 42.2499 34.4901 41.6666 35.1734 40.4999C35.8568 39.3332 36.2151 38.0999 36.2484 36.7999L30.9484 35.9999C30.6484 36.5332 30.3734 37.1082 30.1234 37.7249C29.8734 38.3416 29.7484 38.8999 29.7484 39.3999C29.7484 40.2666 29.9818 40.9582 30.4484 41.4749C30.9151 41.9916 31.5484 42.2499 32.3484 42.2499ZM15.5484 36.5999C13.1151 36.5999 11.1484 35.6916 9.64844 33.8749C8.14844 32.0582 7.39844 29.7832 7.39844 27.0499L6.59844 25.6999C5.79844 24.5332 5.0651 22.8499 4.39844 20.6499C3.73177 18.4499 3.39844 16.1999 3.39844 13.8999C3.39844 10.3332 4.30677 7.35824 6.12344 4.9749C7.9401 2.59157 10.2151 1.3999 12.9484 1.3999C15.7484 1.3999 18.0568 2.63324 19.8734 5.0999C21.6901 7.56657 22.5984 10.4999 22.5984 13.8999C22.5984 15.4332 22.4068 16.9582 22.0234 18.4749C21.6401 19.9916 21.1318 21.5666 20.4984 23.1999L20.7484 23.5999C21.2484 24.4332 21.6818 25.3916 22.0484 26.4749C22.4151 27.5582 22.5984 28.5999 22.5984 29.5999C22.5984 31.5666 21.9401 33.2249 20.6234 34.5749C19.3068 35.9249 17.6151 36.5999 15.5484 36.5999ZM32.4484 46.5999C30.3818 46.5999 28.6901 45.9249 27.3734 44.5749C26.0568 43.2249 25.3984 41.5666 25.3984 39.5999C25.3984 38.5999 25.5818 37.5582 25.9484 36.4749C26.3151 35.3916 26.7651 34.4332 27.2984 33.5999L27.5484 33.1999C26.8818 31.5999 26.3568 30.0332 25.9734 28.4999C25.5901 26.9666 25.3984 25.4332 25.3984 23.8999C25.3984 20.4999 26.3068 17.5666 28.1234 15.0999C29.9401 12.6332 32.2651 11.3999 35.0984 11.3999C37.7984 11.3999 40.0568 12.5916 41.8734 14.9749C43.6901 17.3582 44.5984 20.3332 44.5984 23.8999C44.5984 26.1666 44.2651 28.3749 43.5984 30.5249C42.9318 32.6749 42.1984 34.3999 41.3984 35.6999L40.5984 36.9499C40.5984 39.6499 39.8484 41.9332 38.3484 43.7999C36.8484 45.6666 34.8818 46.5999 32.4484 46.5999Z" fill="#1C1B1F"/>
</g>
</svg>
