<svg width="205" height="65" viewBox="0 0 205 65" fill="none" xmlns="http://www.w3.org/2000/svg">
<mask id="mask0_631_974" style="mask-type:luminance" maskUnits="userSpaceOnUse" x="0" y="0" width="65" height="65">
<path d="M64.8457 0H-0.000198364V64.7519H64.8457V0Z" fill="white"/>
</mask>
<g mask="url(#mask0_631_974)">
<mask id="mask1_631_974" style="mask-type:luminance" maskUnits="userSpaceOnUse" x="0" y="0" width="65" height="65">
<path d="M64.8457 0H-0.000198364V64.7519H64.8457V0Z" fill="white"/>
</mask>
<g mask="url(#mask1_631_974)">
<path fill-rule="evenodd" clip-rule="evenodd" d="M44.2697 62.4956C40.3616 64.0338 36.1916 64.8 31.991 64.7517C30.1593 64.7232 28.3334 64.5398 26.5327 64.2035C27.2506 63.9821 27.9685 63.7185 28.6442 63.4444C34.555 61.1391 39.7494 57.3126 43.6996 52.3537C47.6695 47.3791 50.2584 41.449 51.2062 35.1589C51.6899 31.8595 51.3042 28.4912 50.0871 25.3861C48.8635 22.2908 46.8464 19.5713 44.2381 17.5003C43.6098 17.002 42.9504 16.5443 42.2638 16.1298C42.7389 16.1298 43.2034 16.2352 43.668 16.309C52.0389 17.6346 59.5596 22.1745 64.6251 28.96C65.5322 37.4492 63.0513 45.9532 57.7204 52.6278C54.1833 57.0403 49.5439 60.4439 44.2697 62.4956Z" fill="#337551"/>
</g>
<mask id="mask2_631_974" style="mask-type:luminance" maskUnits="userSpaceOnUse" x="0" y="0" width="65" height="65">
<path d="M64.8457 0H-0.000198364V64.7519H64.8457V0Z" fill="white"/>
</mask>
<g mask="url(#mask2_631_974)">
<path fill-rule="evenodd" clip-rule="evenodd" d="M52.6299 7.05249C55.9183 9.65964 58.6654 12.8826 60.7172 16.5407C61.6132 18.1346 62.3692 19.803 62.9766 21.5273C62.417 21.0213 61.8363 20.5363 61.2451 20.0619C56.2874 16.1017 50.368 13.5228 44.0887 12.5873C37.7925 11.6497 31.3601 12.3767 25.4331 14.6958C22.3279 15.9285 19.5985 17.9489 17.5147 20.5574C14.9383 23.8043 13.4927 27.8018 13.3972 31.9433C9.82424 23.7466 9.78987 14.4424 13.3022 6.21964C20.213 1.18791 28.8327 -0.918421 37.2895 0.358019C42.9028 1.20622 48.1936 3.51508 52.6299 7.05249Z" fill="#004A80"/>
</g>
<mask id="mask3_631_974" style="mask-type:luminance" maskUnits="userSpaceOnUse" x="0" y="0" width="65" height="65">
<path d="M64.8457 0H-0.000198364V64.7519H64.8457V0Z" fill="white"/>
</mask>
<g mask="url(#mask3_631_974)">
<path fill-rule="evenodd" clip-rule="evenodd" d="M0.369526 27.5475C0.998604 23.3924 2.43308 19.3996 4.59264 15.7927C5.52195 14.2272 6.58146 12.7425 7.75997 11.3543C7.60161 12.0923 7.4538 12.8408 7.34822 13.5893C6.40058 19.8554 7.12906 26.2603 9.45977 32.1546C11.7926 38.0751 15.645 43.2782 20.6299 47.2409C23.2503 49.3162 26.3702 50.6686 29.6779 51.1627C32.9681 51.6531 36.3296 51.2676 39.4228 50.0452C40.1699 49.7412 40.8964 49.3891 41.5977 48.9909C41.3232 49.3704 41.0381 49.7394 40.7425 50.1084C35.4192 56.6837 27.7381 60.9272 19.3313 61.9371C11.5192 58.4748 5.38894 52.0769 2.26992 44.1308C0.186115 38.8664 -0.469425 33.146 0.369526 27.5475Z" fill="#D56A34"/>
</g>
</g>
<path d="M84.0697 17.2737C82.7078 17.2737 81.472 17.0298 80.3623 16.542C79.2526 16.0542 78.2985 15.3984 77.4998 14.5747C76.7012 13.751 76.0875 12.8233 75.6587 11.7917C75.23 10.7601 75.0156 9.69247 75.0156 8.58887C75.0156 7.45329 75.2426 6.37368 75.6966 5.35005C76.1505 4.32642 76.7852 3.41076 77.6007 2.60305C78.4162 1.79535 79.3829 1.15958 80.501 0.695747C81.6191 0.231916 82.8423 0 84.1706 0C85.5325 0 86.7683 0.243911 87.878 0.731734C88.9876 1.21956 89.9376 1.87932 90.7278 2.71101C91.5181 3.54271 92.1276 4.47437 92.5563 5.50599C92.9851 6.53762 93.1994 7.59723 93.1994 8.68484C93.1994 9.80443 92.9767 10.876 92.5311 11.8997C92.0855 12.9233 91.455 13.839 90.6396 14.6467C89.8241 15.4544 88.8615 16.0941 87.7519 16.566C86.6422 17.0378 85.4148 17.2737 84.0697 17.2737ZM80.0092 8.63686C80.0092 9.21265 80.0933 9.76844 80.2614 10.3042C80.4296 10.8401 80.6818 11.3199 81.018 11.7437C81.3543 12.1676 81.7789 12.5034 82.2917 12.7514C82.8045 12.9993 83.414 13.1232 84.1201 13.1232C84.8263 13.1232 85.44 12.9953 85.9612 12.7394C86.4824 12.4835 86.907 12.1356 87.2348 11.6957C87.5627 11.2559 87.8065 10.7681 87.9662 10.2323C88.126 9.69647 88.2058 9.14867 88.2058 8.58887C88.2058 8.01308 88.1218 7.46128 87.9536 6.93348C87.7855 6.40567 87.5333 5.92984 87.197 5.50599C86.8607 5.08215 86.432 4.75027 85.9108 4.51036C85.3896 4.27044 84.7843 4.15049 84.0949 4.15049C83.3888 4.15049 82.7793 4.27844 82.2664 4.53435C81.7536 4.79026 81.3291 5.13013 80.9928 5.55398C80.6566 5.97782 80.4086 6.45765 80.2488 6.99345C80.0891 7.52926 80.0092 8.07706 80.0092 8.63686ZM100.463 8.75681V17.1298H95.5453V0.0959651H99.3788L106.567 8.75681V0.0959651H111.484V17.1298H107.575L100.463 8.75681ZM127.576 13.0512V17.1298H114.814V0.0959651H127.349V4.17448H119.732V6.57361H126.239V10.3642H119.732V13.0512H127.576Z" fill="black"/>
<path d="M75.0156 64.6503V47.6165H82.733C83.6073 47.6165 84.4144 47.7844 85.1542 48.1203C85.894 48.4562 86.5329 48.908 87.0709 49.4758C87.609 50.0436 88.0251 50.6794 88.3193 51.3831C88.6136 52.0869 88.7607 52.7986 88.7607 53.5183C88.7607 54.526 88.5127 55.4776 88.0167 56.3733C87.5207 57.269 86.8313 58.0007 85.9486 58.5685C85.0659 59.1363 84.0361 59.4202 82.8591 59.4202H79.9336V64.6503H75.0156ZM79.9336 55.3417H82.5313C82.733 55.3417 82.9264 55.2857 83.1113 55.1737C83.2963 55.0618 83.4518 54.8698 83.5779 54.5979C83.704 54.326 83.7671 53.9662 83.7671 53.5183C83.7671 53.0385 83.6956 52.6666 83.5527 52.4027C83.4098 52.1388 83.2332 51.9549 83.0231 51.8509C82.8129 51.747 82.6069 51.695 82.4052 51.695H79.9336V55.3417ZM93.8043 47.6165H99.3023L105.002 64.6503H100.009L98.924 61.3155H94.1574L93.0981 64.6503H88.0793L93.8043 47.6165ZM98.1422 58.1966L96.5533 52.1988L94.8888 58.1966H98.1422ZM106.742 64.6503V47.6165H114.964C115.838 47.6165 116.645 47.7844 117.385 48.1203C118.125 48.4562 118.764 48.908 119.302 49.4758C119.84 50.0436 120.256 50.6794 120.55 51.3831C120.844 52.0869 120.992 52.7986 120.992 53.5183C120.992 54.1741 120.891 54.8059 120.689 55.4136C120.487 56.0214 120.193 56.5772 119.806 57.081C119.419 57.5849 118.957 58.0207 118.419 58.3886L122.202 64.6503H116.805L113.652 59.4202H111.66V64.6503H106.742ZM111.66 55.3417H114.762C114.964 55.3417 115.157 55.2697 115.342 55.1257C115.527 54.9818 115.683 54.7739 115.809 54.502C115.935 54.2301 115.998 53.9022 115.998 53.5183C115.998 53.1185 115.926 52.7866 115.784 52.5227C115.641 52.2588 115.464 52.0549 115.254 51.9109C115.044 51.767 114.838 51.695 114.636 51.695H111.66V55.3417ZM137.712 51.695H132.567V64.6503H127.649V51.695H122.479V47.6165H137.712V51.695ZM144.673 56.2773V64.6503H139.755V47.6165H143.589L150.777 56.2773V47.6165H155.695V64.6503H151.786L144.673 56.2773ZM171.786 60.5718V64.6503H159.024V47.6165H171.559V51.695H163.942V54.0941H170.449V57.8847H163.942V60.5718H171.786ZM174.333 64.6503V47.6165H182.555C183.429 47.6165 184.236 47.7844 184.976 48.1203C185.716 48.4562 186.354 48.908 186.892 49.4758C187.431 50.0436 187.847 50.6794 188.141 51.3831C188.435 52.0869 188.582 52.7986 188.582 53.5183C188.582 54.1741 188.481 54.8059 188.28 55.4136C188.078 56.0214 187.784 56.5772 187.397 57.081C187.01 57.5849 186.548 58.0207 186.01 58.3886L189.793 64.6503H184.396L181.243 59.4202H179.251V64.6503H174.333ZM179.251 55.3417H182.353C182.555 55.3417 182.748 55.2697 182.933 55.1257C183.118 54.9818 183.273 54.7739 183.399 54.502C183.526 54.2301 183.589 53.9022 183.589 53.5183C183.589 53.1185 183.517 52.7866 183.374 52.5227C183.231 52.2588 183.055 52.0549 182.845 51.9109C182.634 51.767 182.429 51.695 182.227 51.695H179.251V55.3417ZM202.453 53.1825C202.453 53.1825 202.31 53.1025 202.024 52.9425C201.739 52.7826 201.36 52.6027 200.889 52.4027C200.419 52.2028 199.906 52.0229 199.351 51.8629C198.796 51.703 198.25 51.623 197.712 51.623C197.291 51.623 196.947 51.687 196.678 51.815C196.409 51.9429 196.274 52.1588 196.274 52.4627C196.274 52.7506 196.409 52.9825 196.678 53.1585C196.947 53.3344 197.329 53.4943 197.825 53.6383C198.321 53.7822 198.914 53.9582 199.603 54.1661C200.713 54.486 201.671 54.8538 202.478 55.2697C203.285 55.6855 203.907 56.2174 204.345 56.8651C204.782 57.5129 205 58.3726 205 59.4442C205 60.4678 204.807 61.3275 204.42 62.0232C204.034 62.719 203.512 63.2748 202.857 63.6906C202.201 64.1065 201.469 64.4064 200.662 64.5903C199.855 64.7742 199.032 64.8662 198.191 64.8662C197.333 64.8662 196.438 64.7822 195.505 64.6143C194.572 64.4464 193.668 64.2144 192.794 63.9185C191.919 63.6227 191.121 63.2748 190.398 62.8749L192.516 58.7724C192.516 58.7724 192.684 58.8684 193.021 59.0603C193.357 59.2522 193.803 59.4682 194.357 59.7081C194.912 59.948 195.53 60.1639 196.211 60.3558C196.892 60.5478 197.577 60.6437 198.267 60.6437C198.805 60.6437 199.179 60.5758 199.389 60.4398C199.599 60.3039 199.704 60.1239 199.704 59.9C199.704 59.5641 199.519 59.3042 199.149 59.1203C198.779 58.9364 198.296 58.7604 197.699 58.5925C197.102 58.4245 196.442 58.2286 195.719 58.0047C194.677 57.6688 193.819 57.289 193.147 56.8651C192.474 56.4413 191.978 55.9375 191.659 55.3537C191.339 54.7699 191.18 54.0621 191.18 53.2304C191.18 51.9669 191.491 50.9113 192.113 50.0636C192.735 49.2159 193.555 48.5721 194.572 48.1323C195.589 47.6925 196.686 47.4725 197.863 47.4725C198.737 47.4725 199.582 47.5725 200.398 47.7724C201.213 47.9724 201.978 48.2163 202.693 48.5042C203.407 48.7921 204.034 49.064 204.572 49.3199L202.453 53.1825Z" fill="black"/>
<path d="M75.0156 40.9724V23.9386H82.733C83.6073 23.9386 84.4144 24.1065 85.1542 24.4424C85.894 24.7783 86.5329 25.2301 87.0709 25.7979C87.6089 26.3657 88.0251 27.0015 88.3193 27.7052C88.6136 28.409 88.7607 29.1207 88.7607 29.8404C88.7607 30.8481 88.5127 31.7997 88.0167 32.6954C87.5207 33.5911 86.8313 34.3228 85.9486 34.8906C85.0659 35.4584 84.0361 35.7423 82.8591 35.7423H79.9336V40.9724H75.0156ZM79.9336 31.6638H82.5313C82.733 31.6638 82.9264 31.6078 83.1113 31.4958C83.2963 31.3839 83.4518 31.192 83.5779 30.9201C83.704 30.6482 83.7671 30.2883 83.7671 29.8404C83.7671 29.3606 83.6956 28.9888 83.5527 28.7249C83.4098 28.461 83.2332 28.277 83.0231 28.1731C82.8129 28.0691 82.6069 28.0171 82.4052 28.0171H79.9336V31.6638ZM90.9797 40.9724V23.9386H95.8976V36.8939H104.019V40.9724H90.9797ZM110.122 23.9386H115.62L121.32 40.9724H116.327L115.242 37.6376H110.476L109.416 40.9724H104.397L110.122 23.9386ZM114.46 34.5187L112.871 28.5209L111.207 34.5187H114.46ZM127.978 32.5994V40.9724H123.06V23.9386H126.894L134.081 32.5994V23.9386H138.999V40.9724H135.09L127.978 32.5994ZM155.091 36.8939V40.9724H142.329V23.9386H154.864V28.0171H147.247V30.4162H153.754V34.2069H147.247V36.8939H155.091ZM171.584 28.0171H166.439V40.9724H161.521V28.0171H156.351V23.9386H171.584V28.0171Z" fill="black"/>
</svg>
