<svg width="796" height="94" viewBox="0 0 796 94" fill="none" xmlns="http://www.w3.org/2000/svg">
<path d="M140.215 46V45.244L144.331 44.824H144.835L148.741 45.244V46H140.215ZM143.533 46C143.589 45.356 143.617 44.516 143.617 43.48C143.645 42.416 143.659 41.324 143.659 40.204C143.687 39.056 143.701 38.048 143.701 37.18V35.248C143.701 33.932 143.687 32.728 143.659 31.636C143.659 30.516 143.631 29.424 143.575 28.36L140.047 28.15V27.394L145.255 26.344L145.633 26.638L145.549 31.594V37.18C145.549 38.048 145.549 39.056 145.549 40.204C145.577 41.324 145.591 42.416 145.591 43.48C145.619 44.516 145.647 45.356 145.675 46H143.533ZM144.415 20.548C143.967 20.548 143.575 20.394 143.239 20.086C142.903 19.778 142.735 19.372 142.735 18.868C142.735 18.364 142.903 17.958 143.239 17.65C143.575 17.342 143.967 17.188 144.415 17.188C144.891 17.188 145.297 17.342 145.633 17.65C145.969 17.958 146.137 18.364 146.137 18.868C146.137 19.372 145.969 19.778 145.633 20.086C145.297 20.394 144.891 20.548 144.415 20.548ZM152.11 46V45.244L156.226 44.824H156.688L160.594 45.244V46H152.11ZM155.428 46C155.456 45.356 155.47 44.516 155.47 43.48C155.498 42.416 155.512 41.324 155.512 40.204C155.54 39.056 155.554 38.048 155.554 37.18V35.248C155.554 34.38 155.54 33.554 155.512 32.77C155.512 31.986 155.498 31.23 155.47 30.502C155.47 29.774 155.456 29.06 155.428 28.36L151.942 28.15V27.394L156.898 26.344L157.276 26.638L157.402 30.964V31.048V37.18C157.402 38.048 157.402 39.056 157.402 40.204C157.43 41.324 157.444 42.416 157.444 43.48C157.472 44.516 157.5 45.356 157.528 46H155.428ZM164.794 46V45.244L168.868 44.824H169.372L173.236 45.244V46H164.794ZM168.07 46C168.126 45.356 168.154 44.516 168.154 43.48C168.182 42.444 168.196 41.366 168.196 40.246C168.224 39.098 168.238 38.076 168.238 37.18V33.19C168.238 31.118 167.902 29.676 167.23 28.864C166.586 28.052 165.634 27.646 164.374 27.646C163.758 27.646 163.072 27.772 162.316 28.024C161.56 28.248 160.734 28.654 159.838 29.242C158.97 29.83 158.046 30.67 157.066 31.762L156.73 30.964H156.982C157.85 29.872 158.732 28.976 159.628 28.276C160.552 27.576 161.462 27.058 162.358 26.722C163.282 26.358 164.192 26.176 165.088 26.176C166.684 26.176 167.916 26.694 168.784 27.73C169.652 28.738 170.086 30.544 170.086 33.148V37.18C170.086 38.076 170.086 39.098 170.086 40.246C170.114 41.366 170.128 42.444 170.128 43.48C170.156 44.516 170.184 45.356 170.212 46H168.07ZM176.1 46V45.244L180.384 44.824H180.93L185.592 45.244V46H176.1ZM179.586 46C179.614 45.216 179.628 44.32 179.628 43.312C179.656 42.276 179.67 41.226 179.67 40.162C179.698 39.098 179.712 38.104 179.712 37.18V27.772H176.016V26.932L180.51 26.512L179.712 27.142V26.848C179.768 24.916 179.922 23.278 180.174 21.934C180.454 20.59 180.832 19.456 181.308 18.532C181.784 17.608 182.372 16.824 183.072 16.18C183.828 15.48 184.598 14.976 185.382 14.668C186.194 14.36 187.02 14.206 187.86 14.206C188.588 14.206 189.246 14.346 189.834 14.626C190.45 14.878 190.842 15.242 191.01 15.718C190.982 16.054 190.828 16.334 190.548 16.558C190.296 16.782 189.932 16.894 189.456 16.894C189.092 16.894 188.714 16.796 188.322 16.6C187.93 16.404 187.496 16.124 187.02 15.76L185.844 14.878V14.668H187.272V14.92C186.516 15.004 185.788 15.256 185.088 15.676C184.416 16.096 183.828 16.712 183.324 17.524C183.016 17.972 182.736 18.476 182.484 19.036C182.26 19.596 182.078 20.254 181.938 21.01C181.798 21.738 181.686 22.62 181.602 23.656C181.546 24.692 181.532 25.91 181.56 27.31V37.18C181.56 38.104 181.56 39.098 181.56 40.162C181.588 41.226 181.616 42.276 181.644 43.312C181.672 44.32 181.7 45.216 181.728 46H179.586ZM180.594 27.772V26.68H187.482V27.772H180.594ZM198.424 46.504C196.968 46.504 195.568 46.154 194.224 45.454C192.908 44.726 191.816 43.62 190.948 42.136C190.108 40.652 189.688 38.762 189.688 36.466C189.688 34.17 190.108 32.266 190.948 30.754C191.816 29.214 192.908 28.066 194.224 27.31C195.568 26.554 196.968 26.176 198.424 26.176C199.908 26.176 201.308 26.54 202.624 27.268C203.968 27.996 205.06 29.116 205.9 30.628C206.768 32.112 207.202 34.002 207.202 36.298C207.202 38.594 206.768 40.498 205.9 42.01C205.06 43.522 203.968 44.656 202.624 45.412C201.308 46.14 199.908 46.504 198.424 46.504ZM198.424 45.622C199.74 45.622 200.888 45.272 201.868 44.572C202.876 43.844 203.674 42.78 204.262 41.38C204.85 39.98 205.144 38.286 205.144 36.298C205.144 34.31 204.85 32.63 204.262 31.258C203.674 29.886 202.876 28.85 201.868 28.15C200.888 27.45 199.74 27.1 198.424 27.1C197.136 27.1 195.988 27.464 194.98 28.192C193.972 28.92 193.174 29.984 192.586 31.384C191.998 32.756 191.704 34.45 191.704 36.466C191.704 38.454 191.998 40.134 192.586 41.506C193.174 42.85 193.972 43.872 194.98 44.572C195.988 45.272 197.136 45.622 198.424 45.622ZM223.561 43.774C222.861 43.774 222.189 43.606 221.545 43.27C220.929 42.934 220.425 42.402 220.033 41.674C219.669 40.918 219.487 39.952 219.487 38.776C219.487 37.656 219.655 36.508 219.991 35.332C220.355 34.156 220.845 33.036 221.461 31.972C222.077 30.88 222.791 29.9 223.603 29.032C224.443 28.164 225.325 27.478 226.249 26.974C227.201 26.47 228.181 26.218 229.189 26.218C229.889 26.218 230.547 26.386 231.163 26.722C231.807 27.03 232.353 27.52 232.801 28.192L232.171 29.368C231.779 28.724 231.303 28.234 230.743 27.898C230.183 27.562 229.539 27.394 228.811 27.394C227.719 27.394 226.697 27.744 225.745 28.444C224.821 29.116 224.009 29.998 223.309 31.09C222.637 32.182 222.105 33.358 221.713 34.618C221.349 35.85 221.167 37.04 221.167 38.188C221.167 39.588 221.433 40.638 221.965 41.338C222.497 42.01 223.211 42.346 224.107 42.346C224.975 42.346 225.899 42.038 226.879 41.422C227.887 40.778 229.049 39.672 230.365 38.104L230.617 38.398V38.482C229.861 39.546 229.105 40.484 228.349 41.296C227.593 42.08 226.823 42.696 226.039 43.144C225.255 43.564 224.429 43.774 223.561 43.774ZM233.137 43.774C232.297 43.774 231.583 43.606 230.995 43.27C230.435 42.906 230.029 42.402 229.777 41.758C229.525 41.114 229.469 40.358 229.609 39.49L229.525 39.238L231.835 27.772L233.263 26.344L233.683 26.596L231.163 38.986C230.995 39.798 230.981 40.498 231.121 41.086C231.261 41.646 231.527 42.08 231.919 42.388C232.339 42.668 232.871 42.808 233.515 42.808C234.411 42.808 235.293 42.57 236.161 42.094C237.057 41.618 237.883 40.918 238.639 39.994C239.423 39.042 240.039 37.88 240.487 36.508C240.963 35.136 241.201 33.54 241.201 31.72C241.201 29.116 240.683 26.876 239.647 25C238.611 23.124 237.183 21.668 235.363 20.632C233.543 19.596 231.429 19.078 229.021 19.078C226.613 19.078 224.387 19.568 222.343 20.548C220.327 21.528 218.563 22.872 217.051 24.58C215.567 26.26 214.419 28.22 213.607 30.46C212.795 32.672 212.389 35.024 212.389 37.516C212.389 39.756 212.725 41.758 213.397 43.522C214.069 45.258 215.007 46.728 216.211 47.932C217.415 49.164 218.829 50.088 220.453 50.704C222.077 51.32 223.841 51.628 225.745 51.628C227.257 51.628 228.587 51.502 229.735 51.25C230.911 50.998 232.073 50.606 233.221 50.074L233.473 50.662C232.325 51.278 231.079 51.74 229.735 52.048C228.391 52.384 226.991 52.552 225.535 52.552C223.407 52.552 221.447 52.216 219.655 51.544C217.891 50.9 216.351 49.934 215.035 48.646C213.719 47.386 212.697 45.832 211.969 43.984C211.269 42.136 210.919 40.022 210.919 37.642C210.919 35.542 211.213 33.526 211.801 31.594C212.389 29.662 213.215 27.884 214.279 26.26C215.371 24.636 216.673 23.222 218.185 22.018C219.697 20.786 221.377 19.834 223.225 19.162C225.073 18.49 227.047 18.154 229.147 18.154C231.863 18.154 234.215 18.742 236.203 19.918C238.219 21.094 239.773 22.704 240.865 24.748C241.985 26.792 242.545 29.144 242.545 31.804C242.545 33.764 242.251 35.486 241.663 36.97C241.103 38.454 240.347 39.7 239.395 40.708C238.471 41.716 237.449 42.486 236.329 43.018C235.237 43.522 234.173 43.774 233.137 43.774ZM254.697 46.504C253.241 46.504 251.841 46.154 250.497 45.454C249.181 44.726 248.089 43.62 247.221 42.136C246.381 40.652 245.961 38.762 245.961 36.466C245.961 34.17 246.381 32.266 247.221 30.754C248.089 29.214 249.181 28.066 250.497 27.31C251.841 26.554 253.241 26.176 254.697 26.176C256.181 26.176 257.581 26.54 258.897 27.268C260.241 27.996 261.333 29.116 262.173 30.628C263.041 32.112 263.475 34.002 263.475 36.298C263.475 38.594 263.041 40.498 262.173 42.01C261.333 43.522 260.241 44.656 258.897 45.412C257.581 46.14 256.181 46.504 254.697 46.504ZM254.697 45.622C256.013 45.622 257.161 45.272 258.141 44.572C259.149 43.844 259.947 42.78 260.535 41.38C261.123 39.98 261.417 38.286 261.417 36.298C261.417 34.31 261.123 32.63 260.535 31.258C259.947 29.886 259.149 28.85 258.141 28.15C257.161 27.45 256.013 27.1 254.697 27.1C253.409 27.1 252.261 27.464 251.253 28.192C250.245 28.92 249.447 29.984 248.859 31.384C248.271 32.756 247.977 34.45 247.977 36.466C247.977 38.454 248.271 40.134 248.859 41.506C249.447 42.85 250.245 43.872 251.253 44.572C252.261 45.272 253.409 45.622 254.697 45.622ZM267.035 46V45.244L271.151 44.824H271.613L275.519 45.244V46H267.035ZM270.353 46C270.381 45.356 270.395 44.516 270.395 43.48C270.423 42.416 270.437 41.324 270.437 40.204C270.465 39.056 270.479 38.048 270.479 37.18V35.248C270.479 34.38 270.465 33.554 270.437 32.77C270.437 31.986 270.423 31.23 270.395 30.502C270.395 29.774 270.381 29.06 270.353 28.36L266.867 28.15V27.394L271.823 26.344L272.201 26.638L272.327 30.964V31.048V37.18C272.327 38.048 272.327 39.056 272.327 40.204C272.355 41.324 272.369 42.416 272.369 43.48C272.397 44.516 272.425 45.356 272.453 46H270.353ZM279.719 46V45.244L283.793 44.824H284.297L288.161 45.244V46H279.719ZM282.995 46C283.051 45.356 283.079 44.516 283.079 43.48C283.107 42.444 283.121 41.366 283.121 40.246C283.149 39.098 283.163 38.076 283.163 37.18V33.19C283.163 31.118 282.827 29.676 282.155 28.864C281.511 28.052 280.559 27.646 279.299 27.646C278.683 27.646 277.997 27.772 277.241 28.024C276.485 28.248 275.659 28.654 274.763 29.242C273.895 29.83 272.971 30.67 271.991 31.762L271.655 30.964H271.907C272.775 29.872 273.657 28.976 274.553 28.276C275.477 27.576 276.387 27.058 277.283 26.722C278.207 26.358 279.117 26.176 280.013 26.176C281.609 26.176 282.841 26.694 283.709 27.73C284.577 28.738 285.011 30.544 285.011 33.148V37.18C285.011 38.076 285.011 39.098 285.011 40.246C285.039 41.366 285.053 42.444 285.053 43.48C285.081 44.516 285.109 45.356 285.137 46H282.995ZM300.436 46.504C298.672 46.504 297.118 46.14 295.774 45.412C294.43 44.656 293.366 43.536 292.582 42.052C291.826 40.54 291.448 38.692 291.448 36.508C291.448 34.436 291.84 32.63 292.624 31.09C293.408 29.55 294.444 28.346 295.732 27.478C297.048 26.61 298.49 26.176 300.058 26.176C301.542 26.176 302.816 26.512 303.88 27.184C304.944 27.828 305.756 28.724 306.316 29.872C306.904 30.992 307.198 32.266 307.198 33.694C307.198 34.142 307.184 34.548 307.156 34.912C307.128 35.276 307.072 35.612 306.988 35.92H292.372V34.954H303.964C304.524 34.954 304.902 34.828 305.098 34.576C305.294 34.324 305.392 33.876 305.392 33.232C305.392 32.112 305.182 31.09 304.762 30.166C304.37 29.242 303.782 28.5 302.998 27.94C302.214 27.38 301.234 27.1 300.058 27.1C298.826 27.1 297.706 27.478 296.698 28.234C295.69 28.962 294.892 29.998 294.304 31.342C293.716 32.658 293.422 34.198 293.422 35.962C293.422 37.922 293.73 39.588 294.346 40.96C294.962 42.304 295.816 43.326 296.908 44.026C298.028 44.698 299.316 45.034 300.772 45.034C302.004 45.034 303.124 44.796 304.132 44.32C305.14 43.844 306.05 43.158 306.862 42.262L307.366 42.682C306.834 43.522 306.204 44.222 305.476 44.782C304.748 45.342 303.95 45.762 303.082 46.042C302.242 46.35 301.36 46.504 300.436 46.504ZM310.43 56.668V55.87L314.588 55.492H315.05L319.754 55.87V56.668H310.43ZM313.79 56.668C313.846 55.94 313.874 55.058 313.874 54.022C313.902 53.014 313.916 51.95 313.916 50.83C313.944 49.71 313.958 48.716 313.958 47.848V35.29C313.958 34.422 313.944 33.596 313.916 32.812C313.916 32.028 313.902 31.272 313.874 30.544C313.874 29.788 313.86 29.06 313.832 28.36L310.304 28.15V27.394L315.302 26.344L315.68 26.638L315.764 30.082L315.806 30.208V42.766L315.764 42.976V47.806C315.764 48.702 315.764 49.696 315.764 50.788C315.792 51.908 315.806 52.986 315.806 54.022C315.834 55.058 315.862 55.94 315.89 56.668H313.79ZM321.938 46.504C321.21 46.504 320.468 46.392 319.712 46.168C318.956 45.972 318.214 45.608 317.486 45.076C316.758 44.544 316.072 43.83 315.428 42.934H314.924L315.302 41.884C316.394 43.116 317.43 43.998 318.41 44.53C319.39 45.034 320.468 45.286 321.644 45.286C322.792 45.286 323.842 44.964 324.794 44.32C325.746 43.676 326.516 42.682 327.104 41.338C327.692 39.994 327.986 38.258 327.986 36.13C327.986 33.246 327.384 31.076 326.18 29.62C325.004 28.136 323.52 27.394 321.728 27.394C320.972 27.394 320.23 27.534 319.502 27.814C318.802 28.066 318.102 28.472 317.402 29.032C316.73 29.592 316.03 30.32 315.302 31.216L314.966 30.124H315.428C316.072 29.2 316.758 28.458 317.486 27.898C318.214 27.31 318.97 26.876 319.754 26.596C320.566 26.316 321.378 26.176 322.19 26.176C323.674 26.176 324.99 26.568 326.138 27.352C327.314 28.136 328.238 29.256 328.91 30.712C329.61 32.168 329.96 33.932 329.96 36.004C329.96 38.272 329.596 40.19 328.868 41.758C328.168 43.298 327.216 44.474 326.012 45.286C324.808 46.098 323.45 46.504 321.938 46.504ZM333.272 46V45.244L337.514 44.824H338.018L342.176 45.244V46H333.272ZM336.758 46C336.786 45.3 336.8 44.432 336.8 43.396C336.828 42.36 336.842 41.296 336.842 40.204C336.87 39.084 336.884 38.076 336.884 37.18V16.516L333.356 16.306V15.55L338.438 14.668L338.858 14.962L338.732 21.556V37.18C338.732 38.076 338.732 39.084 338.732 40.204C338.76 41.296 338.774 42.36 338.774 43.396C338.802 44.432 338.83 45.3 338.858 46H336.758ZM350.711 46.504C349.255 46.504 348.051 46.098 347.099 45.286C346.175 44.474 345.713 43.298 345.713 41.758C345.713 40.834 345.909 40.008 346.301 39.28C346.693 38.552 347.337 37.894 348.233 37.306C349.129 36.718 350.319 36.186 351.803 35.71C352.447 35.486 353.119 35.276 353.819 35.08C354.519 34.884 355.233 34.702 355.961 34.534C356.689 34.338 357.417 34.156 358.145 33.988V34.744C357.109 35.024 356.059 35.318 354.995 35.626C353.959 35.906 353.007 36.214 352.139 36.55C351.019 36.97 350.123 37.432 349.451 37.936C348.807 38.44 348.345 38.986 348.065 39.574C347.785 40.134 347.645 40.736 347.645 41.38C347.645 42.612 347.981 43.55 348.653 44.194C349.353 44.81 350.263 45.118 351.383 45.118C352.055 45.118 352.699 45.006 353.315 44.782C353.959 44.53 354.645 44.124 355.373 43.564C356.129 42.976 356.983 42.192 357.935 41.212L358.103 42.64H357.389C356.633 43.536 355.891 44.278 355.163 44.866C354.463 45.426 353.749 45.832 353.021 46.084C352.321 46.364 351.551 46.504 350.711 46.504ZM360.245 46.462C359.293 46.462 358.565 46.14 358.061 45.496C357.557 44.852 357.291 43.942 357.263 42.766V42.598V32.77C357.263 31.314 357.095 30.18 356.759 29.368C356.451 28.556 355.961 27.982 355.289 27.646C354.645 27.31 353.819 27.142 352.811 27.142C351.999 27.142 351.257 27.268 350.585 27.52C349.913 27.744 349.199 28.108 348.443 28.612L349.577 27.562L348.779 30.754C348.695 31.174 348.541 31.482 348.317 31.678C348.093 31.846 347.813 31.93 347.477 31.93C347.141 31.93 346.875 31.832 346.679 31.636C346.483 31.44 346.357 31.174 346.301 30.838C346.693 29.298 347.519 28.136 348.779 27.352C350.039 26.568 351.509 26.176 353.189 26.176C354.505 26.176 355.597 26.4 356.465 26.848C357.361 27.268 358.019 27.954 358.439 28.906C358.887 29.83 359.111 31.02 359.111 32.476V42.472C359.111 43.536 359.251 44.278 359.531 44.698C359.839 45.09 360.259 45.286 360.791 45.286C361.127 45.286 361.435 45.23 361.715 45.118C361.995 44.978 362.303 44.754 362.639 44.446L363.101 44.866C362.765 45.37 362.345 45.762 361.841 46.042C361.365 46.322 360.833 46.462 360.245 46.462ZM365.391 46V45.244L369.507 44.824H369.969L373.875 45.244V46H365.391ZM368.709 46C368.737 45.356 368.751 44.516 368.751 43.48C368.779 42.416 368.793 41.324 368.793 40.204C368.821 39.056 368.835 38.048 368.835 37.18V35.248C368.835 34.38 368.821 33.554 368.793 32.77C368.793 31.986 368.779 31.23 368.751 30.502C368.751 29.774 368.737 29.06 368.709 28.36L365.223 28.15V27.394L370.179 26.344L370.557 26.638L370.683 30.964V31.048V37.18C370.683 38.048 370.683 39.056 370.683 40.204C370.711 41.324 370.725 42.416 370.725 43.48C370.753 44.516 370.781 45.356 370.809 46H368.709ZM378.075 46V45.244L382.149 44.824H382.653L386.517 45.244V46H378.075ZM381.351 46C381.407 45.356 381.435 44.516 381.435 43.48C381.463 42.444 381.477 41.366 381.477 40.246C381.505 39.098 381.519 38.076 381.519 37.18V33.19C381.519 31.118 381.183 29.676 380.511 28.864C379.867 28.052 378.915 27.646 377.655 27.646C377.039 27.646 376.353 27.772 375.597 28.024C374.841 28.248 374.015 28.654 373.119 29.242C372.251 29.83 371.327 30.67 370.347 31.762L370.011 30.964H370.263C371.131 29.872 372.013 28.976 372.909 28.276C373.833 27.576 374.743 27.058 375.639 26.722C376.563 26.358 377.473 26.176 378.369 26.176C379.965 26.176 381.197 26.694 382.065 27.73C382.933 28.738 383.367 30.544 383.367 33.148V37.18C383.367 38.076 383.367 39.098 383.367 40.246C383.395 41.366 383.409 42.444 383.409 43.48C383.437 44.516 383.465 45.356 383.493 46H381.351ZM398.791 46.504C397.027 46.504 395.473 46.14 394.129 45.412C392.785 44.656 391.721 43.536 390.937 42.052C390.181 40.54 389.803 38.692 389.803 36.508C389.803 34.436 390.195 32.63 390.979 31.09C391.763 29.55 392.799 28.346 394.087 27.478C395.403 26.61 396.845 26.176 398.413 26.176C399.897 26.176 401.171 26.512 402.235 27.184C403.299 27.828 404.111 28.724 404.671 29.872C405.259 30.992 405.553 32.266 405.553 33.694C405.553 34.142 405.539 34.548 405.511 34.912C405.483 35.276 405.427 35.612 405.343 35.92H390.727V34.954H402.319C402.879 34.954 403.257 34.828 403.453 34.576C403.649 34.324 403.747 33.876 403.747 33.232C403.747 32.112 403.537 31.09 403.117 30.166C402.725 29.242 402.137 28.5 401.353 27.94C400.569 27.38 399.589 27.1 398.413 27.1C397.181 27.1 396.061 27.478 395.053 28.234C394.045 28.962 393.247 29.998 392.659 31.342C392.071 32.658 391.777 34.198 391.777 35.962C391.777 37.922 392.085 39.588 392.701 40.96C393.317 42.304 394.171 43.326 395.263 44.026C396.383 44.698 397.671 45.034 399.127 45.034C400.359 45.034 401.479 44.796 402.487 44.32C403.495 43.844 404.405 43.158 405.217 42.262L405.721 42.682C405.189 43.522 404.559 44.222 403.831 44.782C403.103 45.342 402.305 45.762 401.437 46.042C400.597 46.35 399.715 46.504 398.791 46.504ZM412.934 27.772V26.68H419.528V27.772H412.934ZM416.042 46.504C414.67 46.504 413.634 46.126 412.934 45.37C412.262 44.586 411.926 43.452 411.926 41.968C411.926 41.324 411.926 40.764 411.926 40.288C411.954 39.812 411.968 39.238 411.968 38.566V27.772H408.062V26.932L412.766 26.512L411.968 27.1L412.976 20.506H413.984L413.816 27.1V27.478V41.716C413.816 42.976 414.04 43.9 414.488 44.488C414.964 45.048 415.636 45.328 416.504 45.328C417.12 45.328 417.638 45.244 418.058 45.076C418.506 44.88 418.954 44.628 419.402 44.32L419.822 44.866C419.542 45.202 419.206 45.496 418.814 45.748C418.45 46 418.044 46.182 417.596 46.294C417.148 46.434 416.63 46.504 416.042 46.504ZM422.362 56.668V55.87L426.52 55.492H426.982L431.686 55.87V56.668H422.362ZM425.722 56.668C425.778 55.94 425.806 55.058 425.806 54.022C425.834 53.014 425.848 51.95 425.848 50.83C425.876 49.71 425.89 48.716 425.89 47.848V35.29C425.89 34.422 425.876 33.596 425.848 32.812C425.848 32.028 425.834 31.272 425.806 30.544C425.806 29.788 425.792 29.06 425.764 28.36L422.236 28.15V27.394L427.234 26.344L427.612 26.638L427.696 30.082L427.738 30.208V42.766L427.696 42.976V47.806C427.696 48.702 427.696 49.696 427.696 50.788C427.724 51.908 427.738 52.986 427.738 54.022C427.766 55.058 427.794 55.94 427.822 56.668H425.722ZM433.87 46.504C433.142 46.504 432.4 46.392 431.644 46.168C430.888 45.972 430.146 45.608 429.418 45.076C428.69 44.544 428.004 43.83 427.36 42.934H426.856L427.234 41.884C428.326 43.116 429.362 43.998 430.342 44.53C431.322 45.034 432.4 45.286 433.576 45.286C434.724 45.286 435.774 44.964 436.726 44.32C437.678 43.676 438.448 42.682 439.036 41.338C439.624 39.994 439.918 38.258 439.918 36.13C439.918 33.246 439.316 31.076 438.112 29.62C436.936 28.136 435.452 27.394 433.66 27.394C432.904 27.394 432.162 27.534 431.434 27.814C430.734 28.066 430.034 28.472 429.334 29.032C428.662 29.592 427.962 30.32 427.234 31.216L426.898 30.124H427.36C428.004 29.2 428.69 28.458 429.418 27.898C430.146 27.31 430.902 26.876 431.686 26.596C432.498 26.316 433.31 26.176 434.122 26.176C435.606 26.176 436.922 26.568 438.07 27.352C439.246 28.136 440.17 29.256 440.842 30.712C441.542 32.168 441.892 33.932 441.892 36.004C441.892 38.272 441.528 40.19 440.8 41.758C440.1 43.298 439.148 44.474 437.944 45.286C436.74 46.098 435.382 46.504 433.87 46.504ZM451.118 46.504C449.662 46.504 448.458 46.098 447.506 45.286C446.582 44.474 446.12 43.298 446.12 41.758C446.12 40.834 446.316 40.008 446.708 39.28C447.1 38.552 447.744 37.894 448.64 37.306C449.536 36.718 450.726 36.186 452.21 35.71C452.854 35.486 453.526 35.276 454.226 35.08C454.926 34.884 455.64 34.702 456.368 34.534C457.096 34.338 457.824 34.156 458.552 33.988V34.744C457.516 35.024 456.466 35.318 455.402 35.626C454.366 35.906 453.414 36.214 452.546 36.55C451.426 36.97 450.53 37.432 449.858 37.936C449.214 38.44 448.752 38.986 448.472 39.574C448.192 40.134 448.052 40.736 448.052 41.38C448.052 42.612 448.388 43.55 449.06 44.194C449.76 44.81 450.67 45.118 451.79 45.118C452.462 45.118 453.106 45.006 453.722 44.782C454.366 44.53 455.052 44.124 455.78 43.564C456.536 42.976 457.39 42.192 458.342 41.212L458.51 42.64H457.796C457.04 43.536 456.298 44.278 455.57 44.866C454.87 45.426 454.156 45.832 453.428 46.084C452.728 46.364 451.958 46.504 451.118 46.504ZM460.652 46.462C459.7 46.462 458.972 46.14 458.468 45.496C457.964 44.852 457.698 43.942 457.67 42.766V42.598V32.77C457.67 31.314 457.502 30.18 457.166 29.368C456.858 28.556 456.368 27.982 455.696 27.646C455.052 27.31 454.226 27.142 453.218 27.142C452.406 27.142 451.664 27.268 450.992 27.52C450.32 27.744 449.606 28.108 448.85 28.612L449.984 27.562L449.186 30.754C449.102 31.174 448.948 31.482 448.724 31.678C448.5 31.846 448.22 31.93 447.884 31.93C447.548 31.93 447.282 31.832 447.086 31.636C446.89 31.44 446.764 31.174 446.708 30.838C447.1 29.298 447.926 28.136 449.186 27.352C450.446 26.568 451.916 26.176 453.596 26.176C454.912 26.176 456.004 26.4 456.872 26.848C457.768 27.268 458.426 27.954 458.846 28.906C459.294 29.83 459.518 31.02 459.518 32.476V42.472C459.518 43.536 459.658 44.278 459.938 44.698C460.246 45.09 460.666 45.286 461.198 45.286C461.534 45.286 461.842 45.23 462.122 45.118C462.402 44.978 462.71 44.754 463.046 44.446L463.508 44.866C463.172 45.37 462.752 45.762 462.248 46.042C461.772 46.322 461.24 46.462 460.652 46.462ZM465.797 46V45.244L469.913 44.824H470.417L474.953 45.244V46H465.797ZM469.115 46C469.143 45.356 469.157 44.516 469.157 43.48C469.185 42.416 469.199 41.324 469.199 40.204C469.227 39.056 469.241 38.048 469.241 37.18V35.248C469.241 34.38 469.227 33.554 469.199 32.77C469.199 31.986 469.185 31.23 469.157 30.502C469.157 29.774 469.143 29.06 469.115 28.36L465.629 28.15V27.394L470.585 26.344L470.963 26.638L471.089 32.266V32.35V37.18C471.089 38.048 471.089 39.056 471.089 40.204C471.117 41.324 471.131 42.416 471.131 43.48C471.159 44.516 471.187 45.356 471.215 46H469.115ZM470.963 33.904L470.501 32.266H470.963C471.355 31.034 471.887 29.97 472.559 29.074C473.231 28.15 473.987 27.436 474.827 26.932C475.695 26.428 476.591 26.176 477.515 26.176C478.187 26.176 478.761 26.302 479.237 26.554C479.741 26.778 480.063 27.086 480.203 27.478C480.175 28.01 480.007 28.402 479.699 28.654C479.419 28.906 479.041 29.032 478.565 29.032C478.173 29.032 477.795 28.948 477.431 28.78C477.095 28.584 476.745 28.332 476.381 28.024L475.499 27.268L477.011 27.184C475.751 27.464 474.589 28.164 473.525 29.284C472.489 30.376 471.635 31.916 470.963 33.904ZM486.598 27.772V26.68H493.192V27.772H486.598ZM489.706 46.504C488.334 46.504 487.298 46.126 486.598 45.37C485.926 44.586 485.59 43.452 485.59 41.968C485.59 41.324 485.59 40.764 485.59 40.288C485.618 39.812 485.632 39.238 485.632 38.566V27.772H481.726V26.932L486.43 26.512L485.632 27.1L486.64 20.506H487.648L487.48 27.1V27.478V41.716C487.48 42.976 487.704 43.9 488.152 44.488C488.628 45.048 489.3 45.328 490.168 45.328C490.784 45.328 491.302 45.244 491.722 45.076C492.17 44.88 492.618 44.628 493.066 44.32L493.486 44.866C493.206 45.202 492.87 45.496 492.478 45.748C492.114 46 491.708 46.182 491.26 46.294C490.812 46.434 490.294 46.504 489.706 46.504ZM496.108 46V45.244L500.224 44.824H500.686L504.592 45.244V46H496.108ZM499.426 46C499.454 45.356 499.468 44.516 499.468 43.48C499.496 42.416 499.51 41.324 499.51 40.204C499.538 39.056 499.552 38.048 499.552 37.18V35.248C499.552 34.38 499.538 33.554 499.51 32.77C499.51 31.986 499.496 31.23 499.468 30.502C499.468 29.774 499.454 29.06 499.426 28.36L495.94 28.15V27.394L500.896 26.344L501.274 26.638L501.4 30.964V31.048V37.18C501.4 38.048 501.4 39.056 501.4 40.204C501.428 41.324 501.442 42.416 501.442 43.48C501.47 44.516 501.498 45.356 501.526 46H499.426ZM508.792 46V45.244L512.866 44.824H513.37L517.234 45.244V46H508.792ZM512.068 46C512.124 45.356 512.152 44.516 512.152 43.48C512.18 42.444 512.194 41.366 512.194 40.246C512.222 39.098 512.236 38.076 512.236 37.18V33.19C512.236 31.118 511.9 29.676 511.228 28.864C510.584 28.052 509.632 27.646 508.372 27.646C507.756 27.646 507.07 27.772 506.314 28.024C505.558 28.248 504.732 28.654 503.836 29.242C502.968 29.83 502.044 30.67 501.064 31.762L500.728 30.964H500.98C501.848 29.872 502.73 28.976 503.626 28.276C504.55 27.576 505.46 27.058 506.356 26.722C507.28 26.358 508.19 26.176 509.086 26.176C510.682 26.176 511.914 26.694 512.782 27.73C513.65 28.738 514.084 30.544 514.084 33.148V37.18C514.084 38.076 514.084 39.098 514.084 40.246C514.112 41.366 514.126 42.444 514.126 43.48C514.154 44.516 514.182 45.356 514.21 46H512.068ZM529.508 46.504C527.744 46.504 526.19 46.14 524.846 45.412C523.502 44.656 522.438 43.536 521.654 42.052C520.898 40.54 520.52 38.692 520.52 36.508C520.52 34.436 520.912 32.63 521.696 31.09C522.48 29.55 523.516 28.346 524.804 27.478C526.12 26.61 527.562 26.176 529.13 26.176C530.614 26.176 531.888 26.512 532.952 27.184C534.016 27.828 534.828 28.724 535.388 29.872C535.976 30.992 536.27 32.266 536.27 33.694C536.27 34.142 536.256 34.548 536.228 34.912C536.2 35.276 536.144 35.612 536.06 35.92H521.444V34.954H533.036C533.596 34.954 533.974 34.828 534.17 34.576C534.366 34.324 534.464 33.876 534.464 33.232C534.464 32.112 534.254 31.09 533.834 30.166C533.442 29.242 532.854 28.5 532.07 27.94C531.286 27.38 530.306 27.1 529.13 27.1C527.898 27.1 526.778 27.478 525.77 28.234C524.762 28.962 523.964 29.998 523.376 31.342C522.788 32.658 522.494 34.198 522.494 35.962C522.494 37.922 522.802 39.588 523.418 40.96C524.034 42.304 524.888 43.326 525.98 44.026C527.1 44.698 528.388 45.034 529.844 45.034C531.076 45.034 532.196 44.796 533.204 44.32C534.212 43.844 535.122 43.158 535.934 42.262L536.438 42.682C535.906 43.522 535.276 44.222 534.548 44.782C533.82 45.342 533.022 45.762 532.154 46.042C531.314 46.35 530.432 46.504 529.508 46.504ZM539.912 46V45.244L544.028 44.824H544.532L549.068 45.244V46H539.912ZM543.23 46C543.258 45.356 543.272 44.516 543.272 43.48C543.3 42.416 543.314 41.324 543.314 40.204C543.342 39.056 543.356 38.048 543.356 37.18V35.248C543.356 34.38 543.342 33.554 543.314 32.77C543.314 31.986 543.3 31.23 543.272 30.502C543.272 29.774 543.258 29.06 543.23 28.36L539.744 28.15V27.394L544.7 26.344L545.078 26.638L545.204 32.266V32.35V37.18C545.204 38.048 545.204 39.056 545.204 40.204C545.232 41.324 545.246 42.416 545.246 43.48C545.274 44.516 545.302 45.356 545.33 46H543.23ZM545.078 33.904L544.616 32.266H545.078C545.47 31.034 546.002 29.97 546.674 29.074C547.346 28.15 548.102 27.436 548.942 26.932C549.81 26.428 550.706 26.176 551.63 26.176C552.302 26.176 552.876 26.302 553.352 26.554C553.856 26.778 554.178 27.086 554.318 27.478C554.29 28.01 554.122 28.402 553.814 28.654C553.534 28.906 553.156 29.032 552.68 29.032C552.288 29.032 551.91 28.948 551.546 28.78C551.21 28.584 550.86 28.332 550.496 28.024L549.614 27.268L551.126 27.184C549.866 27.464 548.704 28.164 547.64 29.284C546.604 30.376 545.75 31.916 545.078 33.904ZM562.622 46.504C561.502 46.504 560.494 46.392 559.598 46.168C558.73 45.944 557.806 45.594 556.826 45.118L556.952 40.33H557.834L558.632 45.286H557.54V44.278C558.324 44.726 559.094 45.062 559.85 45.286C560.634 45.51 561.572 45.622 562.664 45.622C563.84 45.622 564.806 45.454 565.562 45.118C566.346 44.754 566.92 44.264 567.284 43.648C567.676 43.032 567.872 42.332 567.872 41.548C567.872 40.512 567.536 39.672 566.864 39.028C566.22 38.384 565.142 37.782 563.63 37.222L562.034 36.634C561.138 36.298 560.326 35.906 559.598 35.458C558.87 35.01 558.296 34.464 557.876 33.82C557.456 33.148 557.246 32.322 557.246 31.342C557.246 30.362 557.484 29.48 557.96 28.696C558.464 27.912 559.164 27.296 560.06 26.848C560.984 26.4 562.118 26.176 563.462 26.176C564.582 26.176 565.548 26.302 566.36 26.554C567.172 26.806 567.998 27.184 568.838 27.688L568.712 32.056H567.83L567.116 27.562H568.166V28.57C567.382 28.038 566.612 27.66 565.856 27.436C565.128 27.212 564.316 27.1 563.42 27.1C561.88 27.1 560.732 27.464 559.976 28.192C559.248 28.892 558.884 29.774 558.884 30.838C558.884 31.93 559.22 32.77 559.892 33.358C560.564 33.918 561.586 34.464 562.958 34.996L564.47 35.584C565.618 36.004 566.57 36.466 567.326 36.97C568.082 37.474 568.642 38.048 569.006 38.692C569.37 39.336 569.552 40.134 569.552 41.086C569.552 42.094 569.3 43.018 568.796 43.858C568.32 44.67 567.564 45.314 566.528 45.79C565.52 46.266 564.218 46.504 562.622 46.504ZM576.475 46.42C575.971 46.42 575.551 46.252 575.215 45.916C574.879 45.58 574.711 45.16 574.711 44.656C574.711 44.152 574.879 43.732 575.215 43.396C575.551 43.06 575.971 42.892 576.475 42.892C576.979 42.892 577.399 43.06 577.735 43.396C578.071 43.732 578.239 44.152 578.239 44.656C578.239 45.16 578.071 45.58 577.735 45.916C577.399 46.252 576.979 46.42 576.475 46.42ZM591.806 46.504C590.098 46.504 588.572 46.126 587.228 45.37C585.912 44.586 584.876 43.452 584.12 41.968C583.364 40.456 582.986 38.622 582.986 36.466C582.986 34.282 583.42 32.42 584.288 30.88C585.156 29.34 586.276 28.178 587.648 27.394C589.048 26.582 590.532 26.176 592.1 26.176C593.164 26.176 594.13 26.372 594.998 26.764C595.866 27.128 596.608 27.66 597.224 28.36C597.868 29.06 598.316 29.9 598.568 30.88C598.512 31.216 598.386 31.482 598.19 31.678C597.994 31.846 597.742 31.93 597.434 31.93C597.042 31.93 596.734 31.832 596.51 31.636C596.286 31.44 596.132 31.146 596.048 30.754L595.04 27.352L596.258 28.696C595.558 28.108 594.872 27.702 594.2 27.478C593.556 27.226 592.856 27.1 592.1 27.1C590.756 27.1 589.538 27.478 588.446 28.234C587.382 28.99 586.528 30.054 585.884 31.426C585.268 32.77 584.96 34.366 584.96 36.214C584.96 37.978 585.254 39.532 585.842 40.876C586.458 42.192 587.298 43.214 588.362 43.942C589.454 44.67 590.714 45.034 592.142 45.034C592.954 45.034 593.71 44.936 594.41 44.74C595.11 44.544 595.782 44.236 596.426 43.816C597.07 43.396 597.658 42.878 598.19 42.262L598.694 42.682C598.162 43.494 597.546 44.194 596.846 44.782C596.174 45.342 595.418 45.762 594.578 46.042C593.738 46.35 592.814 46.504 591.806 46.504ZM611.123 46.504C609.667 46.504 608.267 46.154 606.923 45.454C605.607 44.726 604.515 43.62 603.647 42.136C602.807 40.652 602.387 38.762 602.387 36.466C602.387 34.17 602.807 32.266 603.647 30.754C604.515 29.214 605.607 28.066 606.923 27.31C608.267 26.554 609.667 26.176 611.123 26.176C612.607 26.176 614.007 26.54 615.323 27.268C616.667 27.996 617.759 29.116 618.599 30.628C619.467 32.112 619.901 34.002 619.901 36.298C619.901 38.594 619.467 40.498 618.599 42.01C617.759 43.522 616.667 44.656 615.323 45.412C614.007 46.14 612.607 46.504 611.123 46.504ZM611.123 45.622C612.439 45.622 613.587 45.272 614.567 44.572C615.575 43.844 616.373 42.78 616.961 41.38C617.549 39.98 617.843 38.286 617.843 36.298C617.843 34.31 617.549 32.63 616.961 31.258C616.373 29.886 615.575 28.85 614.567 28.15C613.587 27.45 612.439 27.1 611.123 27.1C609.835 27.1 608.687 27.464 607.679 28.192C606.671 28.92 605.873 29.984 605.285 31.384C604.697 32.756 604.403 34.45 604.403 36.466C604.403 38.454 604.697 40.134 605.285 41.506C605.873 42.85 606.671 43.872 607.679 44.572C608.687 45.272 609.835 45.622 611.123 45.622ZM623.461 46V45.244L627.577 44.824H628.039L631.945 45.244V46H623.461ZM626.779 46C626.807 45.356 626.821 44.516 626.821 43.48C626.849 42.416 626.863 41.324 626.863 40.204C626.891 39.056 626.905 38.048 626.905 37.18V35.248C626.905 34.38 626.891 33.554 626.863 32.77C626.863 31.986 626.849 31.23 626.821 30.502C626.821 29.774 626.807 29.06 626.779 28.36L623.293 28.15V27.394L628.249 26.344L628.627 26.638L628.753 30.922V31.048V37.18C628.753 38.048 628.753 39.056 628.753 40.204C628.781 41.324 628.795 42.416 628.795 43.48C628.823 44.516 628.851 45.356 628.879 46H626.779ZM635.557 46V45.244L639.673 44.824H640.177L643.999 45.244V46H635.557ZM638.875 46C638.903 45.356 638.917 44.516 638.917 43.48C638.945 42.444 638.959 41.366 638.959 40.246C638.987 39.098 639.001 38.076 639.001 37.18V33.19C639.001 31.146 638.693 29.718 638.077 28.906C637.461 28.066 636.565 27.646 635.389 27.646C634.801 27.646 634.143 27.772 633.415 28.024C632.715 28.248 631.945 28.654 631.105 29.242C630.293 29.83 629.397 30.67 628.417 31.762L628.081 30.964H628.333C629.173 29.872 630.013 28.976 630.853 28.276C631.721 27.576 632.589 27.058 633.457 26.722C634.325 26.358 635.179 26.176 636.019 26.176C637.587 26.176 638.777 26.694 639.589 27.73C640.429 28.766 640.849 30.572 640.849 33.148V37.18C640.849 38.076 640.849 39.098 640.849 40.246C640.877 41.366 640.891 42.444 640.891 43.48C640.919 44.516 640.947 45.356 640.975 46H638.875ZM647.653 46V45.244L651.769 44.824H652.231L656.095 45.244V46H647.653ZM650.971 46C650.999 45.356 651.013 44.516 651.013 43.48C651.041 42.444 651.055 41.366 651.055 40.246C651.083 39.098 651.097 38.076 651.097 37.18V33.148C651.097 31.104 650.789 29.676 650.173 28.864C649.557 28.052 648.633 27.646 647.401 27.646C646.813 27.646 646.155 27.758 645.427 27.982C644.727 28.206 643.971 28.612 643.159 29.2C642.347 29.76 641.465 30.572 640.513 31.636L640.135 30.838H640.345C641.185 29.802 642.025 28.934 642.865 28.234C643.733 27.534 644.601 27.016 645.469 26.68C646.337 26.344 647.205 26.176 648.073 26.176C649.641 26.176 650.845 26.694 651.685 27.73C652.525 28.766 652.945 30.544 652.945 33.064V37.18C652.945 38.076 652.945 39.098 652.945 40.246C652.973 41.366 652.987 42.444 652.987 43.48C653.015 44.516 653.043 45.356 653.071 46H650.971Z" fill="white"/>
<path d="M138.535 49.15H213.478V51.25H138.535V49.15ZM235.577 49.15H311.814V51.25H235.577V49.15ZM317.873 49.15H423.744V51.25H317.873V49.15ZM429.803 49.15H657.481V51.25H429.803V49.15Z" fill="white"/>
<a href="mailto:hello@oneplanetpartners.com">
<rect fill="black" fill-opacity="0" x="209.533" y="2.209" width="447.948" height="57.582"/>
</a>
</svg>
