<svg width="85" height="84" viewBox="0 0 85 84" fill="none" xmlns="http://www.w3.org/2000/svg">
<mask id="mask0_1297_965" style="mask-type:luminance" maskUnits="userSpaceOnUse" x="-1" y="0" width="86" height="84">
<path d="M84.0116 0H0V83.8897H84.0116V0Z" fill="white"/>
</mask>
<g mask="url(#mask0_1297_965)">
<mask id="mask1_1297_965" style="mask-type:luminance" maskUnits="userSpaceOnUse" x="-1" y="0" width="86" height="84">
<path d="M84.0116 0H0V83.8897H84.0116V0Z" fill="white"/>
</mask>
<g mask="url(#mask1_1297_965)">
<path fill-rule="evenodd" clip-rule="evenodd" d="M57.3554 80.9665C52.2922 82.9593 46.8897 83.952 41.4477 83.8894C39.0746 83.8526 36.7089 83.615 34.376 83.1792C35.3062 82.8923 36.2363 82.5509 37.1117 82.1958C44.7694 79.2092 51.499 74.2517 56.6168 67.8272C61.76 61.3823 65.114 53.6994 66.342 45.5503C66.9687 41.2758 66.469 36.912 64.8921 32.889C63.307 28.879 60.6937 25.3557 57.3144 22.6726C56.5004 22.0271 55.6461 21.434 54.7566 20.897C55.3721 20.897 55.9739 21.0336 56.5758 21.1292C67.4208 22.8466 77.1643 28.7283 83.727 37.5192C84.9022 48.5175 81.688 59.5349 74.7815 68.1823C70.199 73.8989 64.1884 78.3085 57.3554 80.9665Z" fill="#337551"/>
</g>
<mask id="mask2_1297_965" style="mask-type:luminance" maskUnits="userSpaceOnUse" x="-1" y="0" width="86" height="84">
<path d="M84.0116 0H0V83.8897H84.0116V0Z" fill="white"/>
</mask>
<g mask="url(#mask2_1297_965)">
<path fill-rule="evenodd" clip-rule="evenodd" d="M68.185 9.13683C72.4453 12.5145 76.0043 16.6901 78.6625 21.4294C79.8234 23.4943 80.8027 25.6559 81.5897 27.8898C80.8647 27.2342 80.1124 26.6059 79.3465 25.9913C72.9234 20.8606 65.2546 17.5195 57.1194 16.3075C48.9623 15.0928 40.6288 16.0347 32.95 19.0392C28.927 20.6362 25.391 23.2538 22.6913 26.6332C19.3534 30.8398 17.4806 36.0187 17.3568 41.3843C12.7278 30.765 12.6833 18.7108 17.2337 8.05781C26.1871 1.53893 37.3543 -1.18994 48.3106 0.463757C55.583 1.56265 62.4375 4.55391 68.185 9.13683Z" fill="#004A80"/>
</g>
<mask id="mask3_1297_965" style="mask-type:luminance" maskUnits="userSpaceOnUse" x="-1" y="0" width="86" height="84">
<path d="M84.0116 0H0V83.8897H84.0116V0Z" fill="white"/>
</mask>
<g mask="url(#mask3_1297_965)">
<path fill-rule="evenodd" clip-rule="evenodd" d="M0.48098 35.6892C1.29599 30.306 3.15443 25.1331 5.95226 20.4601C7.15624 18.4319 8.5289 16.5084 10.0557 14.71C9.85055 15.666 9.65905 16.6358 9.52227 17.6055C8.29456 25.7236 9.23833 34.0215 12.2579 41.6579C15.2802 49.3284 20.2713 56.0693 26.7295 61.2031C30.1243 63.8918 34.1663 65.6439 38.4517 66.284C42.7143 66.9194 47.0693 66.4199 51.0767 64.8362C52.0446 64.4425 52.9858 63.9862 53.8944 63.4704C53.5387 63.9621 53.1694 64.4401 52.7864 64.9182C45.8899 73.4368 35.9385 78.9345 25.047 80.2429C14.926 75.7572 6.98392 67.4684 2.94305 57.1739C0.243362 50.3534 -0.605927 42.9423 0.48098 35.6892Z" fill="#D56A34"/>
</g>
</g>
</svg>
