<svg width="286" height="243" viewBox="0 0 286 243" fill="none" xmlns="http://www.w3.org/2000/svg">
<path d="M57.6201 211.809C59.17 213.725 60.2156 215.756 60.7568 217.901C61.298 220.046 61.4138 222.174 61.1041 224.283C60.7945 226.392 60.1206 228.366 59.0824 230.203C58.0442 232.041 56.7088 233.62 55.0762 234.94C53.3963 236.299 51.5408 237.271 49.5099 237.856C47.479 238.442 45.4021 238.644 43.2792 238.463C41.1563 238.282 39.1156 237.682 37.157 236.663C35.1984 235.645 33.4632 234.201 31.9516 232.332C30.4017 230.415 29.3562 228.384 28.815 226.239C28.2738 224.094 28.1687 221.968 28.4997 219.861C28.8308 217.754 29.5154 215.781 30.5536 213.944C31.5918 212.106 32.9153 210.537 34.5243 209.236C36.1805 207.897 38.0193 206.928 40.0407 206.33C42.0621 205.733 44.1342 205.525 46.2571 205.706C48.38 205.887 50.4218 206.476 52.3827 207.474C54.3436 208.471 56.0894 209.916 57.6201 211.809ZM49.4642 227.855C50.316 227.166 51.0426 226.383 51.6439 225.506C52.2452 224.628 52.668 223.699 52.9123 222.719C53.1566 221.739 53.1704 220.739 52.9535 219.721C52.7366 218.703 52.2264 217.697 51.4227 216.703C50.6191 215.709 49.7314 214.999 48.7597 214.571C47.7879 214.144 46.7902 213.963 45.7664 214.028C44.7426 214.092 43.7435 214.333 42.7691 214.749C41.7946 215.165 40.8934 215.708 40.0652 216.378C39.2135 217.067 38.4928 217.845 37.9034 218.713C37.3139 219.581 36.897 220.506 36.6527 221.486C36.4083 222.466 36.4053 223.467 36.6436 224.487C36.8818 225.508 37.3932 226.503 38.1777 227.473C38.9814 228.467 39.8643 229.171 40.8265 229.587C41.7886 230.002 42.7746 230.193 43.7843 230.159C44.794 230.125 45.786 229.9 46.7604 229.484C47.7348 229.068 48.6361 228.525 49.4642 227.855ZM27.1639 192.707L42.0525 187.042L45.2177 195.361L14.9285 206.886L12.4613 200.401L23.2359 182.383L7.83528 188.243L4.67015 179.924L34.9594 168.4L37.4752 175.012L27.1639 192.707ZM24.5316 140.195L32.265 139.56L34.1562 162.579L1.85754 165.232L0 142.623L7.73349 141.988L8.86222 155.726L13.4113 155.352L12.447 143.616L19.6346 143.025L20.5989 154.762L25.6939 154.343L24.5316 140.195ZM33.7803 124.776L2.5214 116.224L6.20695 102.752C6.62448 101.226 7.31809 99.9015 8.28776 98.7787C9.25744 97.6559 10.3917 96.7674 11.6906 96.1132C12.9895 95.459 14.355 95.0517 15.787 94.8914C17.2189 94.731 18.5953 94.8315 19.9161 95.1929C21.7652 95.6987 23.3932 96.6094 24.8 97.9249C26.2067 99.2404 27.2204 100.811 27.8408 102.637C28.4612 104.463 28.4904 106.403 27.9283 108.458L26.5311 113.565L36.129 116.191L33.7803 124.776ZM19.0466 111.518L20.2872 106.983C20.3835 106.631 20.3731 106.265 20.256 105.886C20.1389 105.507 19.8609 105.139 19.4222 104.782C18.9834 104.426 18.3532 104.135 17.5313 103.91C16.6508 103.669 15.9343 103.607 15.3817 103.724C14.8292 103.841 14.4073 104.057 14.1162 104.372C13.825 104.687 13.6313 105.02 13.5349 105.372L12.3546 109.687L19.0466 111.518ZM42.1386 97.3969L13.9978 81.3238L18.4122 73.595L39.8151 85.8196L47.1046 73.0572L53.8425 76.9057L42.1386 97.3969ZM38.1717 46.1498L45.1696 39.0758L75.4634 54.5337L69.1075 60.9587L63.2167 57.892L57.1497 64.025L60.3119 69.8498L53.9239 76.3072L38.1717 46.1498ZM58.0031 54.7249L47.8685 48.744L53.8622 58.9109L58.0031 54.7249ZM78.2431 34.5731L85.8059 48.5933L77.9723 52.819L62.5867 24.2965L68.6929 21.0027L87.9649 29.329L80.1421 14.8268L87.9757 10.6011L103.361 39.1236L97.1346 42.4824L78.2431 34.5731ZM129.96 25.0978L131.601 32.6818L109.027 37.5663L102.174 5.89181L124.346 1.09419L125.987 8.67823L112.514 11.5935L113.479 16.0547L124.989 13.5642L126.514 20.6128L115.004 23.1034L116.086 28.0999L129.96 25.0978ZM162.102 8.73871L152.797 8.40634L151.917 33.0386L143.022 32.7209L143.902 8.08861L134.551 7.75461L134.828 0L162.379 0.984102L162.102 8.73871ZM173.495 36.6366L185.327 6.46599L198.33 11.5651C199.803 12.1428 201.046 12.9735 202.059 14.0572C203.073 15.141 203.835 16.3634 204.347 17.7246C204.86 19.0858 205.119 20.4868 205.126 21.9277C205.133 23.3686 204.887 24.7265 204.387 26.0013C203.687 27.786 202.608 29.3078 201.15 30.5665C199.692 31.8252 198.022 32.6658 196.141 33.0882C194.259 33.5107 192.327 33.3331 190.344 32.5554L185.414 30.6224L181.782 39.8861L173.495 36.6366ZM188.247 23.3985L192.624 25.1148C192.964 25.2482 193.329 25.2767 193.718 25.2006C194.108 25.1245 194.503 24.8874 194.904 24.4891C195.306 24.0908 195.662 23.4951 195.973 22.7018C196.306 21.852 196.444 21.1461 196.387 20.5842C196.329 20.0224 196.159 19.5799 195.877 19.2569C195.596 18.9339 195.285 18.7058 194.945 18.5725L190.78 16.9394L188.247 23.3985ZM222.988 24.9442L231.017 30.8214L220.2 63.0649L212.907 57.727L215.071 51.4481L208.11 46.3527L202.815 50.3401L195.486 44.9752L222.988 24.9442ZM217.434 45.8241L221.853 34.9177L212.682 42.3464L217.434 45.8241ZM222.069 65.4436L247.645 45.5405L256.784 57.2838C257.755 58.5325 258.4 59.8815 258.718 61.3306C259.036 62.7797 259.068 64.2202 258.814 65.6521C258.559 67.084 258.067 68.4212 257.337 69.6638C256.608 70.9063 255.703 71.9481 254.622 72.789C253.637 73.5553 252.577 74.1494 251.44 74.5713C250.303 74.9933 249.141 75.2225 247.955 75.2588C246.769 75.2952 245.601 75.144 244.45 74.8054L239.253 87.5251L233.254 79.8164L237.603 69.2026L235.389 66.3568L227.536 72.4679L222.069 65.4436ZM241.512 61.5913L244.96 66.022C245.185 66.3102 245.508 66.5023 245.929 66.5982C246.351 66.6942 246.836 66.6734 247.384 66.5358C247.933 66.3982 248.495 66.1052 249.072 65.6567C249.672 65.1894 250.091 64.6996 250.328 64.1871C250.566 63.6746 250.676 63.1842 250.658 62.7158C250.641 62.2474 250.52 61.8692 250.296 61.581L246.988 57.3304L241.512 61.5913ZM272.544 103.998L268.982 95.3946L246.209 104.824L242.804 96.6008L265.577 87.171L261.997 78.5258L269.166 75.5572L279.714 101.029L272.544 103.998ZM267.516 124.031L251.674 125.707L250.738 116.856L282.966 113.447L283.695 120.346L268.678 135.016L285.064 133.283L286 142.134L253.772 145.543L253.028 138.507L267.516 124.031ZM256.653 175.475L249.014 174.114L253.063 151.376L284.968 157.057L280.992 179.391L273.352 178.031L275.769 164.46L271.275 163.659L269.211 175.253L262.11 173.989L264.175 162.395L259.142 161.499L256.653 175.475ZM247.716 178.343L277.017 192.187L270.66 205.641C269.985 207.072 269.072 208.256 267.922 209.194C266.772 210.131 265.501 210.809 264.108 211.228C262.716 211.647 261.3 211.812 259.862 211.721C258.424 211.631 257.086 211.293 255.848 210.708C254.72 210.175 253.711 209.496 252.822 208.672C251.932 207.848 251.203 206.915 250.636 205.872C250.068 204.83 249.676 203.719 249.459 202.54L235.763 203.641L239.936 194.809L251.37 193.902L252.91 190.641L243.913 186.39L247.716 178.343ZM259.926 193.956L257.528 199.032C257.372 199.362 257.346 199.737 257.451 200.157C257.555 200.577 257.793 201 258.163 201.427C258.533 201.855 259.048 202.224 259.709 202.536C260.396 202.861 261.023 203.014 261.587 202.995C262.152 202.975 262.639 202.852 263.049 202.625C263.459 202.398 263.742 202.12 263.898 201.79L266.199 196.92L259.926 193.956ZM237.338 235.068C237.338 235.068 237.622 234.971 238.19 234.778C238.758 234.584 239.464 234.288 240.308 233.891C241.152 233.493 242.017 233.013 242.903 232.451C243.789 231.888 244.549 231.238 245.185 230.5C245.681 229.923 245.996 229.371 246.129 228.843C246.262 228.316 246.109 227.863 245.671 227.486C245.256 227.129 244.763 227.025 244.191 227.176C243.62 227.326 242.938 227.653 242.145 228.154C241.352 228.656 240.398 229.25 239.284 229.938C237.513 231.063 235.851 231.921 234.298 232.512C232.746 233.103 231.244 233.296 229.794 233.091C228.344 232.887 226.846 232.12 225.301 230.79C223.825 229.519 222.814 228.187 222.267 226.793C221.721 225.399 221.535 223.994 221.709 222.579C221.884 221.163 222.315 219.788 223.003 218.452C223.691 217.117 224.531 215.873 225.523 214.72C226.536 213.544 227.714 212.42 229.058 211.348C230.402 210.277 231.803 209.325 233.262 208.493C234.721 207.661 236.166 206.997 237.596 206.502L241.01 214.5C241.01 214.5 240.673 214.611 239.999 214.834C239.326 215.057 238.488 215.401 237.487 215.864C236.486 216.327 235.445 216.907 234.364 217.602C233.284 218.298 232.336 219.119 231.522 220.064C230.887 220.802 230.543 221.4 230.491 221.857C230.439 222.314 230.575 222.681 230.897 222.959C231.382 223.376 231.975 223.445 232.677 223.166C233.379 222.887 234.203 222.442 235.15 221.832C236.097 221.222 237.159 220.56 238.335 219.846C240.05 218.833 241.611 218.129 243.016 217.732C244.421 217.336 245.733 217.281 246.952 217.567C248.171 217.854 249.38 218.513 250.579 219.545C252.401 221.114 253.556 222.85 254.044 224.756C254.532 226.661 254.492 228.585 253.925 230.526C253.358 232.467 252.38 234.245 250.99 235.859C249.958 237.058 248.816 238.093 247.565 238.963C246.314 239.834 245.059 240.58 243.8 241.203C242.542 241.826 241.41 242.348 240.406 242.768L237.338 235.068Z" fill="white"/>
<mask id="mask0_355_1075" style="mask-type:luminance" maskUnits="userSpaceOnUse" x="65" y="64" width="156" height="157">
<path d="M220.641 64.9854H65.1012V220.525H220.641V64.9854Z" fill="white"/>
</mask>
<g mask="url(#mask0_355_1075)">
<mask id="mask1_355_1075" style="mask-type:luminance" maskUnits="userSpaceOnUse" x="65" y="64" width="156" height="157">
<path d="M220.641 64.9854H65.1012V220.525H220.641V64.9854Z" fill="white"/>
</mask>
<g mask="url(#mask1_355_1075)">
<path fill-rule="evenodd" clip-rule="evenodd" d="M171.298 215.1C161.924 218.795 151.922 220.635 141.846 220.519C137.453 220.451 133.073 220.011 128.754 219.203C130.476 218.671 132.198 218.038 133.819 217.379C147.996 211.842 160.455 202.65 169.93 190.739C179.453 178.789 185.662 164.544 187.936 149.435C189.096 141.51 188.171 133.419 185.251 125.96C182.317 118.525 177.478 111.993 171.222 107.018C169.715 105.821 168.133 104.721 166.486 103.726C167.626 103.726 168.74 103.979 169.855 104.156C189.933 107.34 207.972 118.246 220.122 134.545C222.298 154.937 216.347 175.364 203.561 191.397C195.077 201.996 183.949 210.172 171.298 215.1Z" fill="#337551"/>
</g>
<mask id="mask2_355_1075" style="mask-type:luminance" maskUnits="userSpaceOnUse" x="65" y="64" width="156" height="157">
<path d="M220.641 64.9854H65.1012V220.525H220.641V64.9854Z" fill="white"/>
</mask>
<g mask="url(#mask2_355_1075)">
<path fill-rule="evenodd" clip-rule="evenodd" d="M191.37 81.9413C199.258 88.2039 205.847 95.9458 210.768 104.733C212.917 108.561 214.731 112.569 216.188 116.711C214.845 115.495 213.453 114.331 212.034 113.191C200.143 103.678 185.945 97.4836 170.883 95.2363C155.781 92.9842 140.352 94.7305 126.136 100.301C118.688 103.262 112.141 108.115 107.143 114.381C100.963 122.181 97.4955 131.783 97.2664 141.731C88.6963 122.042 88.6138 99.6924 97.0385 79.9407C113.615 67.8541 134.29 62.7945 154.574 65.8606C168.039 67.898 180.729 73.4441 191.37 81.9413Z" fill="#004A80"/>
</g>
<mask id="mask3_355_1075" style="mask-type:luminance" maskUnits="userSpaceOnUse" x="65" y="64" width="156" height="157">
<path d="M220.641 64.9854H65.1012V220.525H220.641V64.9854Z" fill="white"/>
</mask>
<g mask="url(#mask3_355_1075)">
<path fill-rule="evenodd" clip-rule="evenodd" d="M65.9539 131.164C67.4628 121.183 70.9035 111.592 76.0834 102.928C78.3125 99.1675 80.8538 95.6011 83.6806 92.2666C83.3008 94.0393 82.9462 95.8373 82.693 97.6353C80.42 112.687 82.1673 128.072 87.7578 142.231C93.3533 156.452 102.594 168.951 114.55 178.469C120.836 183.454 128.319 186.703 136.253 187.89C144.145 189.068 152.208 188.142 159.627 185.205C161.419 184.475 163.162 183.629 164.844 182.673C164.185 183.585 163.502 184.471 162.793 185.357C150.024 201.152 131.6 211.345 111.436 213.771C92.6975 205.454 77.9934 190.086 70.5122 170.999C65.5139 158.353 63.9416 144.612 65.9539 131.164Z" fill="#D56A34"/>
</g>
</g>
</svg>
